<?xml version="1.0" encoding="utf-8"?>
<!-- Generator: Adobe Illustrator 22.1.0, SVG Export Plug-In . SVG Version: 6.00 Build 0)  -->
<svg version="1.1" xmlns="http://www.w3.org/2000/svg" xmlns:xlink="http://www.w3.org/1999/xlink" x="0px" y="0px"
	 viewBox="0 0 32 32" style="enable-background:new 0 0 32 32;" xml:space="preserve">
<style type="text/css">
	.st0{display:none;}
	.st1{display:inline;stroke:#000000;stroke-miterlimit:10;}
	.st2{display:inline;fill:#FFFFFF;}
	.st3{display:inline;}
	.st4{fill:#FFFFFF;}
	.st5{display:inline;fill:none;stroke:#FFFFFF;stroke-miterlimit:10;}
	.st6{display:inline;fill:none;stroke:#FFFFFF;stroke-width:2;stroke-miterlimit:10;}
	.st7{display:inline;fill:none;stroke:#FFFFFF;stroke-width:0.5;stroke-miterlimit:10;}
</style>
<g id="Layer_2" class="st0">
	<rect y="-1.2" class="st1" width="33.6" height="35.2"/>
</g>
<g id="Layer_1">
	<g class="st0">
		<rect x="-31.9" y="-163.3" class="st2" width="435.6" height="207"/>
	</g>
	<g class="st0">
		<g class="st3">
			<path class="st4" d="M31,1.8v22.7H14.7h-0.4l-0.3,0.2l-5.4,4.4v-3.7v-1h-1H1V1.8H31 M32,0.8H0v24.7h7.7v5.8l7.1-5.8H32V0.8
				L32,0.8z"/>
		</g>
		<line class="st5" x1="0.5" y1="5.7" x2="8.7" y2="5.7"/>
		<line class="st5" x1="0.5" y1="13.1" x2="15" y2="13.1"/>
		<line class="st5" x1="0.5" y1="16.8" x2="12.3" y2="16.8"/>
	</g>
	<g>
		<g>
			<g>
				<polygon class="st4" points="0,9.4 8.1,9.4 8.1,11.2 0,11.2 0,12.6 15,12.6 15,14.5 0,14.5 0,16.3 12.1,16.3 12.1,18.1 0,18.1 
					0,25.5 7.7,25.5 7.7,31.2 14.7,25.5 32,25.5 32,4.5 0,4.5 				"/>
			</g>
		</g>
	</g>
	<g class="st0">
		<g class="st3">
			<path class="st4" d="M30,2.8v20.7H14.7H14l-0.6,0.5L9.7,27v-1.6v-2h-2H2V2.8H30 M32,0.8H0v24.7h7.7v5.8l7.1-5.8H32V0.8L32,0.8z"
				/>
		</g>
		<line class="st6" x1="0.5" y1="5.7" x2="8.7" y2="5.7"/>
		<line class="st6" x1="0.5" y1="13.1" x2="15" y2="13.1"/>
		<line class="st6" x1="0.5" y1="16.8" x2="12.3" y2="16.8"/>
	</g>
	<g class="st0">
		<g class="st3">
			<path class="st4" d="M31.5,1.3V25H14.7h-0.2l-0.1,0.1l-6.3,5.1v-4.7V25H7.7H0.5V1.3H31.5 M32,0.8H0v24.7h7.7v5.8l7.1-5.8H32V0.8
				L32,0.8z"/>
		</g>
		<line class="st7" x1="0.5" y1="5.7" x2="8.7" y2="5.7"/>
		<line class="st7" x1="0.5" y1="13.1" x2="15" y2="13.1"/>
		<line class="st7" x1="0.5" y1="16.8" x2="12.3" y2="16.8"/>
	</g>
</g>
</svg>
