<svg fill="#FFFFFF" xmlns="http://www.w3.org/2000/svg" xmlns:xlink="http://www.w3.org/1999/xlink" version="1.1" x="0px" y="0px" viewBox="0 0 32 32" enable-background="new 0 0 32 32" xml:space="preserve"><g display="none"><rect x="-233.995" y="-179.339" display="inline" fill="#FFFFFF" width="444.667" height="217.333"></rect></g><g display="none"><g display="inline"><path d="M10.919,20.7v1.269h2.308v0.689h-2.308v1.392h2.455v0.786h-3.39v-4.922h3.368V20.7H10.919z"></path><path d="M18.217,19.914l-1.479,2.383l1.576,2.539h-1.096l-0.707-1.183c-0.108-0.183-0.212-0.368-0.311-0.556l-0.101-0.194    l-0.104-0.191h-0.015l-0.104,0.194c-0.125,0.236-0.267,0.485-0.426,0.747l-0.71,1.183h-1.125l1.615-2.539l-1.5-2.383h1.114    l0.656,1.096c0.104,0.173,0.2,0.344,0.292,0.512l0.09,0.174l0.091,0.173h0.014c0.041-0.077,0.071-0.135,0.091-0.173l0.09-0.17    c0.077-0.148,0.173-0.319,0.288-0.512l0.656-1.1H18.217z"></path><path d="M19.559,20.7v1.269h2.308v0.689h-2.308v1.392h2.456v0.786h-3.39v-4.922h3.368V20.7H19.559z"></path></g><g display="inline"><g><g><path d="M26.082,1c0.551,0,1,0.449,1,1v28c0,0.551-0.449,1-1,1H5.918c-0.551,0-1-0.449-1-1V2c0-0.551,0.449-1,1-1H26.082       M26.082,0H5.918c-1.1,0-2,0.9-2,2v28c0,1.1,0.9,2,2,2h20.165c1.1,0,2-0.9,2-2V2C28.082,0.9,27.183,0,26.082,0L26.082,0z"></path></g></g><g><line fill="#FFFFFF" stroke="#FFFFFF" stroke-miterlimit="10" x1="4.714" y1="7.31" x2="10.387" y2="7.31"></line><line fill="#FFFFFF" stroke="#FFFFFF" stroke-miterlimit="10" x1="4.714" y1="10.533" x2="12.868" y2="10.533"></line></g></g></g><g><g><path d="M26.583,0H5.418c-1.1,0-2,0.9-2,2v4.689h6.324v2H3.418v2.701h8.951v2H3.418V30c0,1.1,0.9,2,2,2h21.165c1.1,0,2-0.9,2-2V2    C28.583,0.9,27.683,0,26.583,0z M13.375,24.836h-3.39v-4.922h3.368V20.7h-2.434v1.269h2.308v0.689h-2.308v1.392h2.455V24.836z     M17.219,24.836l-0.707-1.183c-0.108-0.183-0.212-0.368-0.311-0.556l-0.101-0.194l-0.104-0.191h-0.015l-0.104,0.194    c-0.125,0.236-0.267,0.485-0.426,0.747l-0.71,1.183h-1.125l1.615-2.539l-1.5-2.383h1.114l0.656,1.096    c0.104,0.173,0.2,0.344,0.292,0.512l0.09,0.174l0.091,0.173h0.014c0.041-0.077,0.071-0.135,0.091-0.173l0.09-0.17    c0.077-0.148,0.173-0.319,0.288-0.512l0.656-1.1h1.104l-1.479,2.383l1.576,2.539H17.219z M22.015,24.836h-3.39v-4.922h3.368V20.7    h-2.435v1.269h2.308v0.689h-2.308v1.392h2.456V24.836z"></path></g></g><g display="none"><g display="inline"><path d="M10.919,20.7v1.269h2.308v0.689h-2.308v1.392h2.455v0.786h-3.39v-4.922h3.368V20.7H10.919z"></path><path d="M18.217,19.914l-1.479,2.383l1.576,2.539h-1.096l-0.707-1.183c-0.108-0.183-0.212-0.368-0.311-0.556l-0.101-0.194    l-0.104-0.191h-0.015l-0.104,0.194c-0.125,0.236-0.267,0.485-0.426,0.747l-0.71,1.183h-1.125l1.615-2.539l-1.5-2.383h1.114    l0.656,1.096c0.104,0.173,0.2,0.344,0.292,0.512l0.09,0.174l0.091,0.173h0.014c0.041-0.077,0.071-0.135,0.091-0.173l0.09-0.17    c0.077-0.148,0.173-0.319,0.288-0.512l0.656-1.1H18.217z"></path><path d="M19.559,20.7v1.269h2.308v0.689h-2.308v1.392h2.456v0.786h-3.39v-4.922h3.368V20.7H19.559z"></path></g><g display="inline"><g><g><path d="M26.082,0.5c0.827,0,1.5,0.673,1.5,1.5v28c0,0.827-0.673,1.5-1.5,1.5H5.918c-0.827,0-1.5-0.673-1.5-1.5V2      c0-0.827,0.673-1.5,1.5-1.5H26.082 M26.082,0H5.918c-1.1,0-2,0.9-2,2v28c0,1.1,0.9,2,2,2h20.165c1.1,0,2-0.9,2-2V2      C28.082,0.9,27.183,0,26.082,0L26.082,0z"></path></g></g><g><line fill="#FFFFFF" stroke="#FFFFFF" stroke-width="0.5" stroke-miterlimit="10" x1="4.237" y1="7.31" x2="10.241" y2="7.31"></line><line fill="#FFFFFF" stroke="#FFFFFF" stroke-width="0.5" stroke-miterlimit="10" x1="4.237" y1="10.533" x2="12.868" y2="10.533"></line></g></g></g><g display="none"><g display="inline"><path stroke="#FFFFFF" stroke-width="0.25" stroke-miterlimit="10" d="M10.919,20.7v1.269h2.308v0.689h-2.308v1.392h2.455v0.786    h-3.39v-4.922h3.368V20.7H10.919z" fill="#FFFFFF"></path><path stroke="#FFFFFF" stroke-width="0.25" stroke-miterlimit="10" d="M18.217,19.914l-1.479,2.383l1.576,2.539h-1.096    l-0.707-1.183c-0.108-0.183-0.212-0.368-0.311-0.556l-0.101-0.194l-0.104-0.191h-0.015l-0.104,0.194    c-0.125,0.236-0.267,0.485-0.426,0.747l-0.71,1.183h-1.125l1.615-2.539l-1.5-2.383h1.114l0.656,1.096    c0.104,0.173,0.2,0.344,0.292,0.512l0.09,0.174l0.091,0.173h0.014c0.041-0.077,0.071-0.135,0.091-0.173l0.09-0.17    c0.077-0.148,0.173-0.319,0.288-0.512l0.656-1.1H18.217z" fill="#FFFFFF"></path><path stroke="#FFFFFF" stroke-width="0.25" stroke-miterlimit="10" d="M19.559,20.7v1.269h2.308v0.689h-2.308v1.392h2.456v0.786    h-3.39v-4.922h3.368V20.7H19.559z" fill="#FFFFFF"></path></g><g display="inline"><g><g><path d="M26.582,2v28H5.418V2H26.582 M26.582,0H5.418c-1.1,0-2,0.9-2,2v28c0,1.1,0.9,2,2,2h21.165c1.1,0,2-0.9,2-2V2      C28.582,0.9,27.683,0,26.582,0L26.582,0z"></path></g></g><g><line fill="none" stroke="#FFFFFF" stroke-width="2" stroke-miterlimit="10" x1="3.737" y1="8.167" x2="9.741" y2="8.167"></line><line fill="none" stroke="#FFFFFF" stroke-width="2" stroke-miterlimit="10" x1="3.737" y1="12.39" x2="12.368" y2="12.39"></line></g></g></g></svg>