<svg fill="#FFFFFF" xmlns="http://www.w3.org/2000/svg" xmlns:xlink="http://www.w3.org/1999/xlink" version="1.1" x="0px" y="0px" viewBox="0 0 32 32" enable-background="new 0 0 32 32" xml:space="preserve"><g display="none"><rect x="-132.5" y="-90.005" display="inline" fill="#FFFFFF" width="415.5" height="206"></rect></g><g display="none"><g display="inline"><rect x="10.304" y="16.965" width="11.393" height="1"></rect><path d="M32,6.309H13.948l-2.62-3.067H0v25.516h32V6.309z M31,27.758H1V4.242h9.867l2.321,2.717l0.299,0.351h0.461H31V27.758z"></path></g></g><g><g><path d="M32,6.309H13.948l-2.62-3.067H0v25.516h32V6.309z M21.696,17.965H10.304v-1h11.393V17.965z"></path></g></g><g display="none"><line display="inline" fill="#FFFFFF" stroke="#FFFFFF" stroke-width="2" stroke-miterlimit="10" x1="10.271" y1="17.584" x2="21.663" y2="17.584"></line><g display="inline"><polygon fill="#FFFFFF" stroke="#FFFFFF" stroke-width="2" stroke-miterlimit="10" points="1.001,27.96 30.999,27.96 30.999,6.915     14.076,6.915 11.62,4.04 1.001,4.04   "></polygon></g></g><g display="none"><line display="inline" fill="#FFFFFF" stroke="#FFFFFF" stroke-width="0.5" stroke-miterlimit="10" x1="10.304" y1="17.465" x2="21.696" y2="17.465"></line><g display="inline"><g><path fill="#FFFFFF" d="M11.098,3.742l2.47,2.892l0.15,0.175h0.23H31.5v21.449h-31V3.742H11.098 M11.328,3.242H0v25.516h32V6.309     H13.948L11.328,3.242L11.328,3.242z"></path></g></g></g></svg>