<svg xmlns="http://www.w3.org/2000/svg" xmlns:xlink="http://www.w3.org/1999/xlink" viewBox="0 0 67.2 71.91"><defs><style>.cls-1{fill:none;}.cls-2{clip-path:url(#clip-path);}.cls-3{fill:#fff;}.cls-4{clip-path:url(#clip-path-2);}.cls-5{clip-path:url(#clip-path-3);}.cls-6{clip-path:url(#clip-path-4);}.cls-7{clip-path:url(#clip-path-6);}.cls-8{clip-path:url(#clip-path-7);}.cls-9{clip-path:url(#clip-path-8);}.cls-10{clip-path:url(#clip-path-9);}.cls-11{clip-path:url(#clip-path-10);}.cls-12{clip-path:url(#clip-path-11);}.cls-13{clip-path:url(#clip-path-12);}.cls-14{clip-path:url(#clip-path-13);}.cls-15{clip-path:url(#clip-path-15);}.cls-16{clip-path:url(#clip-path-16);}</style><clipPath id="clip-path"><rect class="cls-1" x="31.2" y="46.3" width="32.4" height="12" transform="translate(94.8 104.6) rotate(180)"/></clipPath><clipPath id="clip-path-2"><rect class="cls-1" x="3.6" y="46.3" width="32.4" height="12"/></clipPath><clipPath id="clip-path-3"><rect class="cls-1" x="31.2" y="46.3" width="32.4" height="4.8" transform="translate(94.8 97.4) rotate(180)"/></clipPath><clipPath id="clip-path-4"><rect class="cls-1" x="33.6" y="22.3" width="30" height="24" transform="translate(97.2 68.6) rotate(180)"/></clipPath><clipPath id="clip-path-6"><rect class="cls-1" x="20.73" y="22.3" width="25.55" height="24"/></clipPath><clipPath id="clip-path-7"><polygon class="cls-1" points="33.6 22.3 26.52 22.3 21.44 51.1 33.6 51.1 33.6 22.3"/></clipPath><clipPath id="clip-path-8"><polygon class="cls-1" points="33.6 22.3 40.68 22.3 45.76 51.1 33.6 51.1 33.6 22.3"/></clipPath><clipPath id="clip-path-9"><rect class="cls-1" x="24.9" y="46.3" width="20.8" height="4.8"/></clipPath><clipPath id="clip-path-10"><polygon class="cls-1" points="31.2 22.3 24.12 22.3 19.04 51.1 31.2 51.1 31.2 22.3"/></clipPath><clipPath id="clip-path-11"><polygon class="cls-1" points="31.2 22.3 38.28 22.3 43.36 51.1 31.2 51.1 31.2 22.3"/></clipPath><clipPath id="clip-path-12"><rect class="cls-1" x="3.6" y="46.3" width="32.4" height="4.8"/></clipPath><clipPath id="clip-path-13"><rect class="cls-1" x="3.6" y="22.3" width="30" height="24"/></clipPath><clipPath id="clip-path-15"><rect class="cls-1" x="17.94" y="55.9" width="31.28" height="4.81"/></clipPath><clipPath id="clip-path-16"><rect class="cls-1" x="17.94" y="60.37" width="31.28" height="4.43"/></clipPath></defs><title>ER-NDCC-ShatterLogo</title><g id="Layer_2" data-name="Layer 2"><g id="Content"><g class="cls-2"><rect class="cls-3" x="52.07" y="18.59" width="4.8" height="53.31" transform="translate(-7.03 10.15) rotate(-10)"/></g><g class="cls-4"><rect class="cls-3" x="-13.93" y="42.84" width="53.31" height="4.8" transform="translate(-34.04 49.92) rotate(-80)"/></g><path class="cls-3" d="M40.7,22.3S38.53,9.79,38.19,8.06C37.58,5,34.3,4.8,29.61,4.8l-.68,3.93c-3.06,0-5.38-.4-6.24,4.25h5.5L26.55,22.3ZM33.64,9.05a4.94,4.94,0,0,1,3.6,1.8,4.94,4.94,0,0,1-3.6,1.8,5,5,0,0,1-3.6-1.8A5,5,0,0,1,33.64,9.05Z"/><circle class="cls-3" cx="33.64" cy="10.85" r="1.2"/><g class="cls-5"><rect class="cls-3" x="44.19" y="18.8" width="4.8" height="46.44" transform="translate(-6.59 8.73) rotate(-10)"/></g><g class="cls-6"><rect class="cls-3" x="54.47" y="18.59" width="4.8" height="53.31" transform="translate(-6.99 10.56) rotate(-10)"/></g><g class="cls-6"><rect class="cls-3" x="46.59" y="18.8" width="4.8" height="46.44" transform="translate(-6.55 9.15) rotate(-10)"/></g><g class="cls-7"><g class="cls-8"><rect class="cls-3" x="26.05" y="18.5" width="4.8" height="27.79" transform="translate(-14.57 29.61) rotate(-45)"/><rect class="cls-3" x="24.17" y="27.46" width="4.8" height="26.45" transform="translate(-20.99 30.71) rotate(-45)"/></g><g class="cls-9"><rect class="cls-3" x="24.85" y="29.99" width="27.79" height="4.8" transform="translate(-11.56 36.88) rotate(-45)"/><rect class="cls-3" x="27.4" y="38.29" width="26.45" height="4.8" transform="translate(-16.87 40.65) rotate(-45)"/></g></g><g class="cls-10"><g class="cls-11"><rect class="cls-3" x="23.65" y="18.5" width="4.8" height="27.79" transform="translate(-15.27 27.91) rotate(-45)"/><rect class="cls-3" x="21.77" y="27.46" width="4.8" height="26.45" transform="translate(-21.69 29.01) rotate(-45)"/></g><g class="cls-12"><rect class="cls-3" x="22.45" y="29.99" width="27.79" height="4.8" transform="translate(-12.26 35.19) rotate(-45)"/><rect class="cls-3" x="25" y="38.29" width="26.45" height="4.8" transform="translate(-17.57 38.95) rotate(-45)"/></g></g><g class="cls-13"><rect class="cls-3" x="-2.61" y="39.62" width="46.44" height="4.8" transform="translate(-24.35 55.02) rotate(-80)"/></g><g class="cls-14"><rect class="cls-3" x="-16.33" y="42.84" width="53.31" height="4.8" transform="translate(-36.02 47.56) rotate(-80)"/></g><g class="cls-14"><rect class="cls-3" x="-5.01" y="39.62" width="46.44" height="4.8" transform="translate(-26.33 52.66) rotate(-80)"/></g><g class="cls-15"><path class="cls-3" d="M25.12,58.31v4.8H23.67l-1.91-2.73v2.73H20.24v-4.8H22l1.6,2.29V58.31Z"/><path class="cls-3" d="M33,60.71a2.28,2.28,0,0,1-2.52,2.4H28.13v-4.8h2.34A2.28,2.28,0,0,1,33,60.71Zm-1.63,0a.94.94,0,0,0-1.06-1.06h-.57v2.12h.57A.94.94,0,0,0,31.36,60.71Z"/><path class="cls-3" d="M35.5,60.71c0-1.54,1-2.49,2.77-2.49a3.12,3.12,0,0,1,1.73.45l-.39,1.25a2.14,2.14,0,0,0-1.18-.33c-.86,0-1.31.39-1.31,1.11s.47,1.13,1.36,1.13a2.7,2.7,0,0,0,1.25-.32l.42,1.24a3.26,3.26,0,0,1-1.79.45C36.55,63.2,35.5,62.28,35.5,60.71Z"/><path class="cls-3" d="M42.48,60.71c0-1.54,1-2.49,2.77-2.49a3.1,3.1,0,0,1,1.73.45l-.39,1.25a2.14,2.14,0,0,0-1.18-.33c-.86,0-1.3.39-1.3,1.11s.46,1.13,1.35,1.13a2.7,2.7,0,0,0,1.25-.32l.42,1.24a3.26,3.26,0,0,1-1.79.45C43.53,63.2,42.48,62.28,42.48,60.71Z"/></g><g class="cls-16"><path class="cls-3" d="M23.92,58.31v4.8H22.47l-1.91-2.73v2.73H19v-4.8H20.8l1.6,2.29V58.31Z"/><path class="cls-3" d="M31.79,60.71a2.28,2.28,0,0,1-2.52,2.4H26.93v-4.8h2.34A2.28,2.28,0,0,1,31.79,60.71Zm-1.63,0a.94.94,0,0,0-1.06-1.06h-.57v2.12h.57A.94.94,0,0,0,30.16,60.71Z"/><path class="cls-3" d="M34.3,60.71c0-1.54,1-2.49,2.77-2.49a3.12,3.12,0,0,1,1.73.45l-.39,1.25a2.14,2.14,0,0,0-1.18-.33c-.86,0-1.31.39-1.31,1.11s.47,1.13,1.36,1.13a2.7,2.7,0,0,0,1.25-.32L39,62.75a3.26,3.26,0,0,1-1.79.45C35.35,63.2,34.3,62.28,34.3,60.71Z"/><path class="cls-3" d="M41.28,60.71c0-1.54,1-2.49,2.77-2.49a3.1,3.1,0,0,1,1.73.45l-.39,1.25a2.14,2.14,0,0,0-1.18-.33c-.86,0-1.3.39-1.3,1.11s.46,1.13,1.35,1.13a2.7,2.7,0,0,0,1.25-.32l.42,1.24a3.26,3.26,0,0,1-1.79.45C42.33,63.2,41.28,62.28,41.28,60.71Z"/></g><rect class="cls-1" width="67.2" height="67.2"/></g></g></svg>